<?xml version="1.0" encoding="UTF-8"?>
<svg width="16px" height="16px" viewBox="0 0 16 16" version="1.1" xmlns="http://www.w3.org/2000/svg">
  <title>案件管理</title>
  <g>
    <path
      d="M13.0151522,7.33827987 L12.9878547,7.33827987 L12.9878547,2.39272784 C12.9878547,1.98557052 12.8380474,1.58452056 12.4964997,1.3214343 C12.2407912,1.12443279 11.9373943,1.01371732 11.6071932,1.01089854 L10.9255779,1.01089854 C10.8183612,0.592935895 10.5031244,0.249514357 10.0704755,0.0860250335 C9.89073952,0.01821768 9.69883481,0.0008351945 9.50725897,0.0008351945 L3.38998778,0.0008351945 C3.16651005,0.0008351945 2.94286788,-0.00104399312 2.71939015,0.0008351945 C2.22474629,0.00506336665 1.7465467,0.262198873 1.51007799,0.680944515 C1.38312817,0.905664036 1.33922195,1.14729624 1.33922195,1.39895079 L1.33922195,5.33757145 L0.984847773,5.33757145 C0.440968978,5.33765791 0,5.75750651 0,6.27544267 L0,13.0621288 C0,13.5800649 0.440968978,14 0.984847773,14 L13.0151522,14 C13.559031,14 14,13.5800649 14,13.0621288 L14,8.27630769 C14,7.75831038 13.5590952,7.33836635 13.0151522,7.33827987 Z M2.12657395,1.32644546 L2.12657395,1.28134496 C2.12657395,1.26349268 2.12986281,1.2453272 2.13134279,1.22747492 L2.13249389,1.22152416 C2.14346356,1.17672012 2.15707914,1.13254119 2.1732757,1.08919803 L2.17919564,1.07713991 C2.19054219,1.05584245 2.2028754,1.03517138 2.21586638,1.01450032 C2.22523962,0.999780016 2.23543507,0.985686109 2.24546608,0.971592201 C2.2517149,0.96423205 2.25878594,0.955932305 2.26191036,0.951860731 C2.29085228,0.920540938 2.34002067,0.892196524 2.3655093,0.858840944 C2.38655798,0.845216834 2.40826442,0.832219119 2.4304642,0.820317598 C2.449704,0.809982066 2.47009491,0.801369122 2.4896636,0.791346788 L2.49328134,0.790093997 C2.54184357,0.775129253 2.59125521,0.762790454 2.64127983,0.75313664 L2.64835087,0.75313664 C2.67104398,0.751727249 2.69390152,0.751100853 2.71659463,0.750944254 L9.60970682,0.750944254 C9.6261511,0.750944254 9.64440425,0.752666843 9.66167074,0.753919635 C9.67252396,0.755642224 9.68370607,0.757051614 9.69455929,0.759244 C9.7376433,0.768170141 9.77809622,0.782264048 9.8195358,0.794948565 C9.82578463,0.797297549 9.83154012,0.799489935 9.83598008,0.801369122 C9.86130427,0.813740441 9.88629957,0.827207952 9.91047266,0.841615057 C9.92527251,0.8503846 9.93941458,0.859780538 9.95372111,0.869176476 L9.95898327,0.874031044 C9.99285849,0.904098046 10.0277204,0.95358332 10.0650489,0.97942215 C10.0649986,0.979838374 10.0649986,0.980258717 10.0650489,0.980674942 C10.0719555,0.990384078 10.0786976,1.00040641 10.0852753,1.01042875 L4.65126386,1.01042875 C4.43863935,1.01042875 4.22552152,1.01042875 4.02259914,1.08418686 C3.45625822,1.28776552 3.09678632,1.77901648 3.09678632,2.35686668 L3.09678632,5.33804125 L2.12657395,5.33804125 L2.12657395,1.64230558 C2.12657395,1.53722768 2.12608062,1.43183657 2.12657395,1.32644546 Z M5.77128359,5.72358791 C5.58483816,5.48163682 5.28854768,5.33869711 4.97340725,5.33866764 L3.88463165,5.33866764 L3.88463165,2.3690814 L3.88463165,2.32445069 C3.88463165,2.30393623 3.88545386,2.28342176 3.8867694,2.2629073 C3.88683163,2.25606574 3.88760277,2.24924673 3.8890716,2.24254943 C3.89066898,2.23386683 3.89133019,2.22505147 3.89104492,2.2162408 C3.89104492,2.22140857 3.89104492,2.22594994 3.89186713,2.23033471 C3.89778707,2.20371289 3.90452922,2.17724766 3.91291581,2.15203523 C3.91719132,2.13825452 3.92245349,2.12463041 3.92722233,2.1110063 C3.95780868,2.06402661 3.99135501,2.01438473 4.01947472,1.96583905 C4.02473689,1.96020149 4.02999906,1.95440733 4.035919,1.94892636 C4.06042097,1.92402713 4.10284721,1.8985015 4.12504698,1.87062688 L4.13540688,1.86389312 C4.16138884,1.84823323 4.18852189,1.83257333 4.21614828,1.81894922 C4.22379669,1.81249937 4.23291758,1.80783476 4.24278801,1.80532511 L4.25249013,1.80234973 C4.2575411,1.8003654 4.2623404,1.79784381 4.26679665,1.79483298 L4.2589034,1.80047054 C4.29179196,1.79029161 4.32468051,1.78011268 4.35756907,1.77275253 C4.36908006,1.77024694 4.38059105,1.76821116 4.39210205,1.76586217 C4.41989288,1.76413958 4.44768371,1.76226039 4.47563898,1.7621038 L11.2769921,1.7621038 C11.386511,1.7621038 11.4961943,1.7611642 11.6058777,1.7621038 L11.6320241,1.7621038 C11.6455084,1.7621038 11.6589927,1.76335659 11.672477,1.76413958 L11.6617882,1.76038121 L11.6737925,1.76429618 L11.6885924,1.76429618 C11.7002184,1.76426783 11.7116173,1.76736156 11.7214809,1.77322232 C11.7375988,1.77538926 11.7535752,1.77842167 11.7693338,1.78230506 C11.7976179,1.78982181 11.8267243,1.80328932 11.8553373,1.81143247 L11.8757282,1.8214548 C11.9072025,1.83754318 11.9377252,1.85526555 11.9671584,1.87454185 C11.9781761,1.88174541 11.990016,1.89192434 12.0018559,1.8983449 L11.9854116,1.88941876 L11.9875493,1.89114135 C12.0107358,1.91102941 12.0326067,1.93201368 12.0533264,1.95378093 C12.0618097,1.95889716 12.0688183,1.96594828 12.0737173,1.9742954 C12.0763484,1.97805377 12.0789795,1.98181215 12.0814462,1.98557052 C12.0840539,1.98855924 12.0869741,1.99128766 12.0901616,1.99371367 L12.0837484,1.9890157 C12.0980549,2.00968676 12.1123614,2.03020123 12.1253524,2.05165529 C12.1340678,2.06653219 12.1417967,2.08203549 12.1503477,2.09675579 C12.1588987,2.12134183 12.1692586,2.14561467 12.1766585,2.17051391 C12.1847162,2.19838852 12.1865251,2.23565908 12.1965561,2.26447329 C12.1965561,2.26979765 12.1965561,2.27512202 12.1975428,2.28013318 C12.198365,2.29501009 12.1985294,2.30973039 12.1986939,2.32476389 C12.2028049,2.72878923 12.1986939,3.13297117 12.1986939,3.53699651 L12.1986939,7.33827987 L7.01644428,7.33827987 L5.77128359,5.72358791 Z"></path>
    <path
      d="M4.34423616,2.5271397 C4.33885154,2.53665349 4.33131308,2.54616728 4.32592846,2.55568107 C4.32054385,2.56519486 4.31408231,2.58275878 4.31192846,2.59410215 C4.31246578,2.59727078 4.31246578,2.6004473 4.31192846,2.60361594 C4.30869769,2.65228264 4.36039,2.65594179 4.34423616,2.5271397 Z M4.73135137,2.17396999 L4.71582319,2.18302147 C4.6947208,2.20187872 4.67202577,2.21771881 4.65649759,2.23280462 L4.62783019,2.26297622 C4.61190386,2.2954107 4.64057126,2.29691928 4.73135137,2.17396999 Z M12.9352953,2.40749471 L12.9280218,2.39712819 C12.9062011,2.37451034 12.8838609,2.34529562 12.8677551,2.32880344 C12.8516494,2.31231125 12.8485322,2.31089764 12.8391804,2.30147353 C12.8132034,2.29110702 12.8251529,2.32927464 12.9352953,2.40749471 L12.9352953,2.40749471 Z M12.5387767,2.22325109 C12.503604,2.20728663 12.4687583,2.18535432 12.4344059,2.15755878 L12.4315464,2.15755878 C12.5133989,2.24586647 12.5434234,2.24478955 12.5387767,2.22325109 L12.5387767,2.22325109 Z M5.5137303,3.92245482 L11.0447469,3.92245482 C11.2991771,3.92245482 11.5546402,3.92858009 11.8090704,3.92245482 L11.8202598,3.92245482 C12.0364738,3.92245482 12.243392,3.74035237 12.2334076,3.52514037 C12.2234232,3.30992838 12.0519669,3.12782592 11.8202598,3.12782592 L6.2892432,3.12782592 C6.034813,3.12782592 5.77952207,3.12186621 5.52509186,3.12782592 L5.5137303,3.12782592 C5.29768841,3.12782592 5.09059806,3.30992838 5.10058246,3.52514037 C5.11056687,3.74035237 5.28219537,3.92245482 5.5137303,3.92245482 L5.5137303,3.92245482 Z M9.29420509,5.56794947 L11.8202598,5.56794947 C12.0364738,5.56794947 12.243392,5.38461614 12.2334076,5.16794947 C12.2234232,4.9512828 12.0519669,4.76794947 11.8202598,4.76794947 L9.29420509,4.76794947 C9.07816321,4.76794947 8.87107286,4.9512828 8.88105726,5.16794947 C8.89104167,5.38461614 9.06267016,5.56794947 9.29420509,5.56794947 Z"></path>
  </g>
</svg>
