<?xml version="1.0" encoding="UTF-8"?>
<svg class="icon" viewBox="0 0 1024 1024" version="1.1" xmlns="http://www.w3.org/2000/svg" width="32" height="32">
  <path
    d="M844.5 918.6H184.6c-42.9 0-77.9-34.9-77.9-77.9V180.9c0-42.9 34.9-77.9 77.9-77.9h659.9c42.9 0 77.9 34.9 77.9 77.9v659.9c-0.1 42.9-35 77.8-77.9 77.8zM184.6 131c-27.5 0-49.9 22.4-49.9 49.9v659.9c0 27.5 22.4 49.9 49.9 49.9h659.9c27.5 0 49.9-22.4 49.9-49.9V180.9c0-27.5-22.4-49.9-49.9-49.9H184.6z"
    fill="#338bff"></path>
  <path
    d="M466.5 576.6c0-9.9-8-18-17.9-18.1l-179.2-0.7c-9.9 0-18 8-18.1 17.9 0 9.9 8 18 17.9 18.1l179.2 0.7c9.9 0 18-8 18.1-17.9z"
    fill="#338bff"></path>
  <path
    d="M448.5 558.7c-9.9 0-18 8-18.1 17.9l-0.7 179.2c0 9.9 8 18 17.9 18.1 9.9 0 18-8 18.1-17.9l0.7-179.2c0.1-9.9-8-18.1-17.9-18.1zM541.2 464.6c0 9.9 8 18 17.9 18.1l179.2 0.7c9.9 0 18-8 18.1-17.9 0-9.9-8-18-17.9-18.1l-179.2-0.7c-9.9 0-18.1 8-18.1 17.9z"
    fill="#338bff"></path>
  <path
    d="M559.1 482.5c9.9 0 18-8 18.1-17.9l0.7-179.2c0-9.9-8-18-17.9-18.1-9.9 0-18 8-18.1 17.9l-0.7 179.2c0 9.9 8 18 17.9 18.1zM201.4 824.3c6.5 6.4 17 6.3 23.3-0.1l236.3-239c6.4-6.5 6.3-17-0.1-23.3-6.5-6.4-17-6.3-23.3 0.1L201.3 801c-6.4 6.4-6.4 16.9 0.1 23.3z"
    fill="#338bff"></path>
  <path
    d="M560.2 465.7c6.5 6.4 17 6.3 23.3-0.1l236.3-239c6.4-6.5 6.3-17-0.1-23.3-6.5-6.4-17-6.3-23.3 0.1L560 442.4c-6.3 6.5-6.3 17 0.2 23.3z"
    fill="#338bff"></path>
</svg>
