<?xml version="1.0" encoding="UTF-8"?>
<svg width="32px" height="32px" viewBox="0 0 32 32" version="1.1" xmlns="http://www.w3.org/2000/svg" xmlns:xlink="http://www.w3.org/1999/xlink">
    <title>位图备份</title>
    <defs>
        <rect id="path-1" x="0" y="0" width="31.5787688" height="32" rx="7.92"></rect>
        <linearGradient x1="1.30768374%" y1="69.5645918%" x2="92.6399505%" y2="31.2777277%" id="linearGradient-3">
            <stop stop-color="#33A7F7" offset="0%"></stop>
            <stop stop-color="#1765EC" offset="100%"></stop>
        </linearGradient>
        <linearGradient x1="1.30768374%" y1="69.5645918%" x2="92.6399505%" y2="31.2777277%" id="linearGradient-4">
            <stop stop-color="#339EF7" offset="0%"></stop>
            <stop stop-color="#1765EC" offset="100%"></stop>
        </linearGradient>
    </defs>
    <g id="页面-2" stroke="none" stroke-width="1" fill="none" fill-rule="evenodd">
        <g id="跟踪询盘" transform="translate(-13.000000, -13.000000)">
            <g id="位图备份" transform="translate(13.000000, 13.000000)">
                <mask id="mask-2" fill="white">
                    <use xlink:href="#path-1"></use>
                </mask>
                <use id="蒙版" fill="#005FE7" opacity="0" xlink:href="#path-1"></use>
                <g id="编组-2备份-3" mask="url(#mask-2)">
                    <g transform="translate(15.789384, 16.000000) rotate(45.000000) translate(-15.789384, -16.000000) translate(5.131550, 5.200000)">
                        <g id="编组备份-4" stroke-width="1" fill="none" fill-rule="evenodd" transform="translate(10.657834, 10.800000) rotate(-360.000000) translate(-10.657834, -10.800000) translate(0.000000, -0.000000)">
                            <path d="M4.22790127,6.40536104 L4.22790127,7.85454545 L4.22790127,7.85454545 L2.81860085,7.85454545 L2.81860085,18.7438017 L13.5645166,18.7438017 L13.5645166,7.85454545 L10.5663234,7.85454545 C9.40071494,7.85454545 8.45580255,6.90963306 8.45580255,5.74402456 L8.45580255,4.99834711 L8.45580255,4.99834711 L13.5645166,4.99834711 C15.1026551,4.99834711 16.3530297,6.24684514 16.3825825,7.79833714 L16.3831174,7.85454545 L16.3831174,18.7438017 C16.3831174,20.3024575 15.151054,21.5695109 13.619985,21.599458 L13.5645166,21.6 L2.81860085,21.6 C1.28046237,21.6 0.0300877378,20.351502 0.000534903284,18.80001 L-8.80653258e-13,18.7438017 L-8.80653258e-13,7.85454545 C-8.80653258e-13,6.29588965 1.23206346,5.02883619 2.76313243,4.99888915 L2.81860085,4.99834711 L2.82088734,4.99834711 C3.59795968,4.99834711 4.22790127,5.6282887 4.22790127,6.40536104 Z" id="形状" fill="url(#linearGradient-3)" fill-rule="nonzero"></path>
                            <path d="M18.4970681,4.2854317e-13 C20.0352065,4.2854317e-13 21.2855812,1.24849804 21.315134,2.79999003 L21.3156689,2.85619835 L21.3156689,13.7454545 C21.3156689,15.3041103 20.0836055,16.5711638 18.5525365,16.6011109 L18.4970681,16.6016529 L18.4947816,16.6016529 C17.7177092,16.6016529 17.0877676,15.9717113 17.0877676,15.194639 L17.0877676,13.7454545 L17.0877676,13.7454545 L18.4970681,13.7454545 L18.4970681,2.85619835 L7.75115233,2.85619835 L7.75115233,5.00760661 L7.75115233,13.7454545 L10.7493455,13.7454545 C11.914954,13.7454545 12.8598664,14.6903669 12.8598664,15.8559754 L12.8598664,16.6016529 L12.8598664,16.6016529 L7.75115233,16.6016529 C6.21301386,16.6016529 4.96263922,15.3531549 4.93308639,13.8016629 L4.93255149,13.7454545 L4.93255149,2.85619835 C4.93255149,1.29754254 6.16461495,0.0304890801 7.69568391,0.000542038394 L7.75115233,4.2854317e-13 L18.4970681,4.2854317e-13 Z" id="形状" fill="url(#linearGradient-4)" fill-rule="nonzero"></path>
                        </g>
                        <path d="M9.86963063,8.8 L10.6578345,8.8 C11.3118522,8.8 11.8420383,9.33018611 11.8420383,9.98420383 L11.8420383,12.404 C11.8420383,12.6227048 11.664743,12.8 11.4460383,12.8 L10.6578345,12.8 C10.0038167,12.8 9.47363063,12.2698139 9.47363063,11.6157962 L9.47363063,9.196 C9.47363063,8.97729524 9.65092587,8.8 9.86963063,8.8 Z" id="矩形" fill="#FF8B17" fill-rule="nonzero"></path>
                    </g>
                </g>
            </g>
        </g>
    </g>
</svg>
