<?xml version="1.0" encoding="UTF-8"?>
<svg width="40px" height="40px" viewBox="0 0 40 40" version="1.1" xmlns="http://www.w3.org/2000/svg" xmlns:xlink="http://www.w3.org/1999/xlink">
    <!-- Generator: Sketch 58 (84663) - https://sketch.com -->
    <title>call_admin备份 13</title>
    <desc>Created with Sketch.</desc>
    <g id="web" stroke="none" stroke-width="1" fill="none" fill-rule="evenodd">
        <g id="备份" transform="translate(-1362.000000, -16.000000)">
            <g id="导航栏">
                <g id="编组-5" transform="translate(1362.000000, 16.000000)">
                    <circle id="椭圆形" fill="#5873DB" opacity="0.451799665" cx="20" cy="20" r="20"></circle>
                    <circle id="椭圆形" fill="#5873DB" cx="20" cy="20" r="18"></circle>
                    <g id="admin" transform="translate(8.000000, 8.000000)" fill="#FFFFFF" fill-rule="nonzero">
                        <path d="M15.0743936,22.3161679 L15.5080063,20.0814225 L13.6777575,18.4992227 C13.0424645,17.9539448 12.8155741,17.2164788 13.0676745,16.5326467 C13.3197749,15.8488146 13.990362,15.3750486 14.8626293,15.2633113 L17.0760707,14.9772639 C16.9802725,14.9191605 16.8945584,14.8610571 16.8138863,14.7984842 C16.5365759,14.5839487 16.3399376,14.3560047 16.2189294,14.1235911 C16.0979212,13.8911776 16.0273331,13.6498251 16.012207,13.4174116 C15.997081,13.1805286 16.012207,12.948115 16.0626271,12.720171 C16.0979212,12.5369219 16.1533833,12.3804897 16.2189294,12.2508745 C16.2844755,12.1212592 16.3701896,12.0139914 16.4760718,11.9201322 C16.5819539,11.8307423 16.6979201,11.7413525 16.8390963,11.6609017 C16.9802725,11.5759814 17.1214487,11.4776526 17.277751,11.3525068 C17.4138852,11.245239 17.5348934,11.0977458 17.6508596,10.9055577 C17.7567417,10.7178391 17.8575819,10.5211815 17.943296,10.3245239 C18.0290101,10.1010494 18.1096823,9.85969685 18.1752283,9.61834435 C18.3466566,9.57364944 18.5080009,9.49319861 18.6643031,9.36805286 C18.8004373,9.26078509 18.9214455,9.11329188 19.0374117,8.92110377 C19.1432938,8.72891566 19.229008,8.47862418 19.279428,8.15682082 C19.3147221,7.91099882 19.3096801,7.70987173 19.269344,7.54003108 C19.229008,7.37019043 19.1685039,7.23610571 19.1029577,7.12883791 C19.0374116,7.00369217 18.9416135,6.90983285 18.8206053,6.85172948 C18.8357314,6.24387872 18.7953953,5.63155848 18.6895131,5.02370772 C18.608841,4.50524677 18.4575808,3.9554994 18.2407744,3.3699961 C18.0239681,2.7844928 17.7012796,2.24815389 17.2727089,1.76097939 C17.0811127,1.54644384 16.8340543,1.33637776 16.5214498,1.13078119 C16.2189293,0.925184615 15.8609468,0.741935484 15.4676702,0.572094836 C15.0693516,0.402254188 14.6458229,0.268169466 14.1920422,0.160901666 C13.7382615,0.0536338663 13.2542288,0 12.760112,0 C12.3617934,0 11.9533908,0.0357559259 11.5349041,0.0938593166 C11.1113755,0.160901689 10.6979308,0.263699964 10.2844862,0.415662649 C9.87104153,0.567625334 9.46263891,0.77769141 9.0592783,1.04586085 C8.65591769,1.3140303 8.29289312,1.65371162 7.96516261,2.06490476 C7.62230609,2.50291488 7.36012167,2.99902836 7.1786094,3.54877573 C6.99709712,4.0985231 6.87104692,4.61698405 6.80550084,5.10415855 C6.7147447,5.68519237 6.68449265,6.26622619 6.69961866,6.8427905 C6.55844245,6.99922269 6.45256028,7.15565485 6.38701419,7.32549552 C6.31642609,7.47745821 6.271048,7.65623784 6.24583798,7.86183443 C6.21558593,8.06743101 6.24583798,8.30431403 6.33155212,8.55907501 C6.42230826,8.81830547 6.52314841,9.01496309 6.64415659,9.15351729 C6.76516477,9.29207151 6.87608894,9.39933929 6.98197111,9.47532062 C7.1029793,9.55577145 7.22398748,9.60493586 7.34499566,9.63622229 C7.4307098,9.87757479 7.51642392,10.1144578 7.60213806,10.3424018 C7.6878522,10.5390594 7.77860834,10.7312475 7.88449049,10.9234357 C7.99037266,11.1156238 8.10633882,11.263117 8.24751504,11.3703848 C8.5449935,11.5849203 8.8021359,11.7905169 9.03406825,11.9871745 C9.2660006,12.1838321 9.39709279,12.46541 9.43238686,12.8319083 C9.4475129,13.0643218 9.45759691,13.2788574 9.45759691,13.475515 C9.45759691,13.6766421 9.41726085,13.8643607 9.34163072,14.0476098 C9.2660006,14.2308589 9.12482438,14.4141081 8.92818607,14.5973572 C8.73154777,14.7806063 8.45423733,14.9727944 8.09121279,15.169452 C7.64751609,15.4286825 7.1281893,15.6253401 6.5332324,15.7638943 C5.93827548,15.9024485 3.34668349,16.6935484 2.78702064,16.8633891 C2.23239977,17.0287602 1.74332502,17.2567043 1.3298804,17.5472212 C0.921477772,17.8332686 0.664335372,18.2623397 0.558453225,18.8254955 C0.387025017,19.7998445 0.351730976,19.9562767 0.442487113,20.5820054 C0.53324325,21.2032646 0.674419463,21.5742324 0.866015777,21.6993781 C1.02231803,21.8021764 1.46601469,21.9273222 2.20718985,22.0748154 C2.94836498,22.2223086 7.60718013,23 13.0172545,23 C13.7231356,23 14.4038066,22.9865915 15.0592676,22.9597746 C15.0290156,22.7497085 15.0340575,22.5351729 15.0743936,22.3161679 Z" id="路径"></path>
                        <path d="M25.2397044,16.8183487 L22.6347137,16.4702124 C22.2354441,16.416653 21.7631374,16.1042229 21.5829792,15.7694765 L20.4192543,13.6047827 C20.3316098,13.4396411 20.2098813,13.3548387 20.0930219,13.3548387 C19.9761625,13.3548387 19.8593031,13.4396412 19.7667894,13.6047827 L18.6030646,15.7694765 C18.4229063,16.0997596 17.9505996,16.416653 17.55133,16.4702124 L14.9463393,16.8183487 C14.5470697,16.8719082 14.454556,17.1263155 14.7467045,17.3851861 L16.6310623,19.0678449 C16.9183416,19.3267155 17.0984999,19.8355301 17.0303319,20.2015196 L16.58724,22.5804511 C16.5385486,22.843785 16.6505389,23 16.8501736,23 C16.9280799,23 17.0157244,22.9776836 17.1131073,22.9285874 L19.4405569,21.8038393 C19.6207151,21.7190369 19.8544339,21.674404 20.0881527,21.674404 C20.3218715,21.674404 20.5604594,21.7190369 20.7357485,21.8038393 L23.0631982,22.9285874 C23.160581,22.9776836 23.2530947,23 23.3261318,23 C23.5257666,23 23.6377568,22.843785 23.5890654,22.5804511 L23.1459735,20.2015196 C23.0778056,19.8355301 23.2579638,19.3267155 23.5452432,19.0678449 L25.4296009,17.3851861 C25.7266185,17.1263155 25.638974,16.8719082 25.2397044,16.8183487 Z" id="路径"></path>
                    </g>
                </g>
            </g>
        </g>
    </g>
</svg>
